HIERARCHY
ROOT Hips
{
  OFFSET 51.9164 95.6768 10.738
  CHANNELS 6 Xposition Yposition Zposition Zrotation Xrotation Yrotation
  JOINT spine
  {
    OFFSET 0 7.96568 0.458067
    CHANNELS 3 Zrotation Xrotation Yrotation
    JOINT spine1
    {
      OFFSET 0 10.2431 0
      CHANNELS 3 Zrotation Xrotation Yrotation
      JOINT spine2
      {
        OFFSET 0 9.81475 0
        CHANNELS 3 Zrotation Xrotation Yrotation
        JOINT Neck
        {
          OFFSET 0 25.1986 1.20138
          CHANNELS 3 Zrotation Xrotation Yrotation
          JOINT Head
          {
            OFFSET 0 7.61315 0
            CHANNELS 3 Zrotation Xrotation Yrotation
            End Site
            {
              OFFSET 0 18.4281 -6.07733
            }
          }
        }
        JOINT RightShoulder
        {
          OFFSET -4.1327 10.5992 -0.575451
          CHANNELS 3 Zrotation Xrotation Yrotation
          JOINT RightArm
          {
            OFFSET 0 13.9018 0
            CHANNELS 3 Zrotation Xrotation Yrotation
            JOINT RightArmRoll
            {
              OFFSET 0 7.01789 0
              CHANNELS 3 Zrotation Xrotation Yrotation
              JOINT RightForeArm
              {
                OFFSET 0 20.4406 0
                CHANNELS 3 Zrotation Xrotation Yrotation
                JOINT RightForeArmRoll
                {
                  OFFSET 0 7.87516 0
                  CHANNELS 3 Zrotation Xrotation Yrotation
                  JOINT RightHand
                  {
                    OFFSET 0 15.8037 0
                    CHANNELS 3 Zrotation Xrotation Yrotation
                    End Site
                    {
                      OFFSET 0 0 0
                    }
                  }
                }
              }
            }
          }
        }
        JOINT LeftShoulder
        {
          OFFSET 4.1327 10.5992 -0.575451
          CHANNELS 3 Zrotation Xrotation Yrotation
          JOINT LeftArm
          {
            OFFSET 0 13.9018 0
            CHANNELS 3 Zrotation Xrotation Yrotation
            JOINT LeftArmRoll
            {
              OFFSET 0 7.01788 0
              CHANNELS 3 Zrotation Xrotation Yrotation
              JOINT LeftForeArm
              {
                OFFSET 0 20.4406 0
                CHANNELS 3 Zrotation Xrotation Yrotation
                JOINT LeftForeArmRoll
                {
                  OFFSET 0 7.87516 0
                  CHANNELS 3 Zrotation Xrotation Yrotation
                  JOINT LeftHand
                  {
                    OFFSET 0 15.8037 0
                    CHANNELS 3 Zrotation Xrotation Yrotation
                    End Site
                    {
                      OFFSET 0 0 0
                    }
                  }
                }
              }
            }
          }
        }
      }
    }
  }
  JOINT RightUpLeg
  {
    OFFSET -7.06048 -1.2947 -1.0861
    CHANNELS 3 Zrotation Xrotation Yrotation
    JOINT RightUpLegRoll
    {
      OFFSET 0 18.5308 0
      CHANNELS 3 Zrotation Xrotation Yrotation
      JOINT RightLeg
      {
        OFFSET 0 -22.9476 0
        CHANNELS 3 Zrotation Xrotation Yrotation
        JOINT RightLegRoll
        {
          OFFSET 0 23.0226 0
          CHANNELS 3 Zrotation Xrotation Yrotation
          JOINT RightFoot
          {
            OFFSET 0 19.1625 0
            CHANNELS 3 Zrotation Xrotation Yrotation
            JOINT RightToeBase
            {
              OFFSET 0 16.0188 0
              CHANNELS 3 Zrotation Xrotation Yrotation
              End Site
              {
                OFFSET 0.00678979 7.75782 -0.894206
              }
            }
          }
        }
      }
    }
  }
  JOINT LeftUpLeg
  {
    OFFSET 7.06048 -1.2947 -1.0861
    CHANNELS 3 Zrotation Xrotation Yrotation
    JOINT LeftUpLegRoll
    {
      OFFSET 0 18.5309 0
      CHANNELS 3 Zrotation Xrotation Yrotation
      JOINT LeftLeg
      {
        OFFSET 0 22.9475 0
        CHANNELS 3 Zrotation Xrotation Yrotation
        JOINT LeftLegRoll
        {
          OFFSET 0 23.2355 0
          CHANNELS 3 Zrotation Xrotation Yrotation
          JOINT LeftFoot
          {
            OFFSET 0 18.9496 0
            CHANNELS 3 Zrotation Xrotation Yrotation
            JOINT LeftToeBase
            {
              OFFSET 0 16.0188 0
              CHANNELS 3 Zrotation Xrotation Yrotation
              End Site
              {
                OFFSET -0.0304289 7.75781 -0.894207
              }
            }
          }
        }
      }
    }
  }
}
MOTION
Frames: 11
Frame Time: 0.00208333
51.9335 95.6788 10.472 -0.514522 -3.51047 1.2972 0.305121 -1.5914 0.141359 0.638577 0.822238 0.281274 0.63565 2.46725 0.270662 -1.56058 24.4447 0.0745317 0.977782 -2.7691 -0.367065 72.1403 3.67328 0.129868 101.555 19.8694 21.6757 1.03368e-014 -3.18055e-015 -0 2.81198 0.0245106 -0.212798 -1.87045e-008 1.09089e-006 -3.03852 8.02993 -4.95139 0.69764 -74.0982 1.6496 1.05205 -102.598 21.411 -27.7478 0 0 -3.18055e-015 7.60633 6.78922 -1.70231 1.07926e-005 -8.80415e-007 3.00503 -8.03049 -4.95135 -0.697609 176.344 -5.02725 -2.34147 180 7.01512e-015 178.781 177.904 3.53792 179.599 -1.01451e-006 -3.05325e-006 0.0363784 -18.9127 68.0353 19.5635 8.14479 25.3629 -3.31201 -173.232 -1.11193 0.113686 4.54188e-006 -4.6773e-006 -1.15069 -1.61974 -7.0569 0.197797 -3.75119e-006 -2.08692e-006 -0.0434095 18.2597 68.5388 -19.9752 -8.13649 25.2327 3.48774 
51.9338 95.6741 10.4799 -0.514367 -3.51771 1.29514 0.30631 -1.59174 0.142528 0.639108 0.821984 0.281312 0.636175 2.46699 0.270694 -1.57296 24.4618 0.0766318 0.987143 -2.76984 -0.368502 72.1394 3.67564 0.13107 101.551 19.8631 21.6817 6.36111e-015 -6.36111e-015 6.36111e-015 2.81071 0.0244931 -0.213013 -1.87045e-008 1.09089e-006 -3.03858 8.02993 -4.95139 0.69764 -74.1099 1.65004 1.05338 -102.575 21.3873 -27.7071 3.18055e-015 0 -6.36111e-015 7.53827 6.73888 -1.68587 1.07926e-005 -8.80415e-007 3.00503 -8.03049 -4.95135 -0.697609 176.344 -5.03738 -2.33491 180 7.01512e-015 178.781 177.894 3.53258 179.599 -1.01451e-006 -3.05325e-006 0.0363784 -18.9134 68.0361 19.5643 8.14416 25.3532 -3.3251 -173.231 -1.13354 0.110485 4.54188e-006 -4.6773e-006 -1.1514 -1.62228 -7.03749 0.1971 -3.75119e-006 -2.08692e-006 -0.0434095 18.2629 68.5334 -19.9708 -8.13649 25.2327 3.48774 
51.9337 95.6779 10.4842 -0.514204 -3.52492 1.29311 0.307511 -1.59209 0.143715 0.639604 0.821738 0.281294 0.636666 2.46675 0.270671 -1.5849 24.4785 0.0785995 0.996108 -2.77014 -0.369958 72.1389 3.67783 0.13214 101.547 19.8572 21.6883 -1.19271e-014 -3.18055e-015 -1.59028e-015 2.80862 0.0244672 -0.213333 -1.87045e-008 1.09089e-006 -3.03866 8.02993 -4.95139 0.69764 -74.1212 1.65059 1.05462 -102.554 21.3638 -27.6686 1.11319e-014 1.27222e-014 -0 7.47342 6.69141 -1.67 1.07926e-005 -8.80415e-007 3.00503 -8.03049 -4.95135 -0.697609 176.345 -5.04742 -2.32809 180 7.01512e-015 178.781 177.883 3.52707 179.599 -1.01451e-006 -3.05325e-006 0.0363784 -18.9142 68.037 19.565 8.1435 25.343 -3.33885 -173.229 -1.15553 0.107023 4.54188e-006 -4.6773e-006 -1.15214 -1.6251 -7.01731 0.196355 -3.75119e-006 -2.08692e-006 -0.0434095 18.2662 68.5278 -19.9661 -8.13649 25.2327 3.48774 
51.9405 95.6728 10.4774 -0.514035 -3.5321 1.29109 0.30872 -1.59244 0.144915 0.640075 0.821497 0.281238 0.637132 2.46651 0.270611 -1.59653 24.495 0.0804747 1.0048 -2.77013 -0.371426 72.1385 3.67988 0.133116 101.544 19.8515 21.6953 -4.77083e-015 0 -1.59028e-015 2.80597 0.0244353 -0.213726 -1.87045e-008 1.09089e-006 -3.03877 8.02993 -4.95139 0.69764 -74.1323 1.65122 1.0558 -102.533 21.3404 -27.6316 -1.59028e-015 0 -0 7.41081 6.64594 -1.65454 1.07926e-005 -8.80415e-007 3.00503 -8.03049 -4.95135 -0.697609 176.346 -5.0574 -2.32109 180 7.01512e-015 178.781 177.872 3.52146 179.6 -1.01451e-006 -3.05325e-006 0.0363784 -18.9149 68.0378 19.5658 8.1428 25.3325 -3.35306 -173.227 -1.17777 0.103377 4.54188e-006 -4.6773e-006 -1.1529 -1.62811 -6.99659 0.195578 -3.75119e-006 -2.08692e-006 -0.0434095 18.2695 68.5219 -19.9613 -8.13649 25.2327 3.48774 
51.9379 95.6748 10.4843 -0.513862 -3.53927 1.28909 0.309934 -1.5928 0.146123 0.640533 0.82126 0.28116 0.637585 2.46627 0.270528 -1.60799 24.5114 0.0822971 1.01332 -2.76994 -0.372901 72.1383 3.68187 0.13404 101.541 19.8459 21.7024 -9.54166e-015 3.18055e-015 -3.18055e-015 2.803 0.0244001 -0.214162 -1.87045e-008 1.09089e-006 -3.03889 8.02993 -4.95139 0.69764 -74.1433 1.6519 1.05694 -102.512 21.3171 -27.5954 0 0 -1.27222e-014 7.34949 6.60162 -1.6393 1.07926e-005 -8.80415e-007 3.00503 -8.03049 -4.95135 -0.697609 176.346 -5.06734 -2.31399 180 7.01512e-015 178.781 177.861 3.51581 179.6 -1.01451e-006 -3.05325e-006 0.0363784 -18.9157 68.0387 19.5667 8.14209 25.3217 -3.36752 -173.225 -1.20016 0.0996261 4.54188e-006 -4.6773e-006 -1.15367 -1.63123 -6.97557 0.194782 -3.75119e-006 -2.08692e-006 -0.0434095 18.273 68.516 -19.9564 -8.13649 25.2327 3.48774 
51.9456 95.6767 10.5289 -0.513689 -3.54643 1.28708 0.311149 -1.59316 0.147333 0.640987 0.821023 0.281077 0.638035 2.46603 0.270441 -1.6194 24.5277 0.0841067 1.02181 -2.7697 -0.374378 72.1382 3.68383 0.13495 101.538 19.8403 21.7096 -5.56597e-015 0 -1.59028e-015 2.79994 0.024364 -0.214607 -1.87045e-008 1.09089e-006 -3.03901 8.02993 -4.95139 0.69764 -74.1542 1.65258 1.05808 -102.491 21.2938 -27.5594 3.18055e-015 6.36111e-015 -0 7.28852 6.55758 -1.62413 1.07926e-005 -8.80415e-007 3.00503 -8.03049 -4.95135 -0.697609 176.347 -5.07728 -2.30685 180 7.01512e-015 178.781 177.849 3.51012 179.601 -1.01451e-006 -3.05325e-006 0.0363784 -18.9164 68.0395 19.5675 8.14137 25.311 -3.38205 -173.223 -1.22259 0.0958491 4.54188e-006 -4.6773e-006 -1.15444 -1.63439 -6.95446 0.193981 -3.75119e-006 -2.08692e-006 -0.0434095 18.2765 68.51 -19.9515 -8.13649 25.2327 3.48774 
51.9461 95.6788 10.5257 -0.513519 -3.5536 1.28508 0.312361 -1.59352 0.148539 0.641448 0.820785 0.281005 0.638491 2.46579 0.270364 -1.6309 24.5441 0.0859435 1.03038 -2.76956 -0.375852 72.138 3.68583 0.135887 101.535 19.8346 21.7167 -1.03368e-014 6.36111e-015 -4.77083e-015 2.79705 0.0243295 -0.215032 -1.87045e-008 1.09089e-006 -3.03912 8.02993 -4.95139 0.69764 -74.1652 1.65324 1.05923 -102.47 21.2705 -27.5231 -0 -1.27222e-014 -0 7.22694 6.51297 -1.60885 1.07926e-005 -8.80415e-007 3.00503 -8.03049 -4.95135 -0.697609 176.348 -5.08723 -2.29977 180 7.01512e-015 178.781 177.838 3.50446 179.601 -1.01451e-006 -3.05325e-006 0.0363784 -18.9172 68.0404 19.5683 8.14066 25.3003 -3.39645 -173.222 -1.24495 0.0921243 4.54188e-006 -4.6773e-006 -1.15521 -1.63748 -6.93351 0.19319 -3.75119e-006 -2.08692e-006 -0.0434095 18.2799 68.5041 -19.9466 -8.13649 25.2327 3.48774 
51.9287 95.6803 10.5119 -0.513353 -3.56079 1.28306 0.313568 -1.59388 0.149735 0.641926 0.820543 0.28096 0.638965 2.46555 0.270314 -1.64263 24.5607 0.0878472 1.03915 -2.76963 -0.377316 72.1376 3.68792 0.13689 101.532 19.8288 21.7236 5.56597e-015 -6.36111e-015 4.77083e-015 2.79456 0.0242994 -0.215405 -1.87045e-008 1.09089e-006 -3.03922 8.02993 -4.95139 0.69764 -74.1764 1.65385 1.06042 -102.449 21.247 -27.4857 -9.54166e-015 -9.54166e-015 -9.54166e-015 7.16379 6.46692 -1.59328 1.07926e-005 -8.80415e-007 3.00503 -8.03049 -4.95135 -0.697609 176.348 -5.09723 -2.29282 180 7.01512e-015 178.781 177.827 3.49889 179.602 -1.01451e-006 -3.05325e-006 0.0363784 -18.9179 68.0412 19.5691 8.13995 25.2899 -3.41051 -173.22 -1.26712 0.0885306 4.54188e-006 -4.6773e-006 -1.15596 -1.64044 -6.91295 0.192423 -3.75119e-006 -2.08692e-006 -0.0434095 18.2833 68.4983 -19.9418 -8.13649 25.2327 3.48774 
51.9342 95.6802 10.526 -0.513195 -3.56801 1.28102 0.314765 -1.59422 0.150917 0.642433 0.820295 0.280959 0.639466 2.4653 0.270308 -1.65471 24.5775 0.0898579 1.04823 -2.77006 -0.378766 72.1369 3.69016 0.137999 101.528 19.8228 21.73 1.59028e-015 -9.54166e-015 -0 2.79272 0.024276 -0.215693 -1.87045e-008 1.09089e-006 -3.0393 8.02993 -4.95139 0.69764 -74.1878 1.65437 1.06169 -102.426 21.2232 -27.4466 2.38542e-014 1.59028e-014 6.36111e-015 7.09814 6.41859 -1.57727 1.07926e-005 -8.80415e-007 3.00503 -8.03049 -4.95135 -0.697609 176.349 -5.1073 -2.28608 180 7.01512e-015 178.781 177.816 3.49343 179.602 -1.01451e-006 -3.05325e-006 0.0363784 -18.9186 68.0421 19.5698 8.13926 25.2798 -3.42405 -173.218 -1.28899 0.0851464 4.54188e-006 -4.6773e-006 -1.15669 -1.64317 -6.893 0.191692 -3.75119e-006 -2.08692e-006 -0.0434095 18.2866 68.4927 -19.9372 -8.13649 25.2327 3.48774 
51.9297 95.685 10.5196 -0.513048 -3.57526 1.27895 0.31595 -1.59455 0.152078 0.642978 0.820037 0.281019 0.640005 2.46505 0.270362 -1.66728 24.5947 0.0920156 1.05775 -2.77098 -0.380196 72.136 3.6926 0.139255 101.524 19.8165 21.7359 8.74653e-015 -6.36111e-015 3.18055e-015 2.79178 0.024262 -0.215867 -1.87045e-008 1.09089e-006 -3.03934 8.02993 -4.95139 0.69764 -74.1997 1.65477 1.06305 -102.403 21.1992 -27.4052 3.18055e-015 -3.18055e-015 -0 7.02903 6.36709 -1.56063 1.07926e-005 -8.80415e-007 3.00503 -8.03049 -4.95135 -0.697609 176.349 -5.11746 -2.27963 180 7.01512e-015 178.781 177.806 3.48815 179.603 -1.01451e-006 -3.05325e-006 0.0363784 -18.9193 68.0429 19.5706 8.1386 25.2703 -3.43686 -173.217 -1.31045 0.0820504 4.54188e-006 -4.6773e-006 -1.1574 -1.64559 -6.8739 0.191014 -3.75119e-006 -2.08692e-006 -0.0434095 18.2896 68.4874 -19.9329 -8.13649 25.2327 3.48774 
51.9287 95.6854 10.5279 -0.512914 -3.58256 1.27684 0.317118 -1.59487 0.153213 0.643571 0.819769 0.281156 0.640592 2.46478 0.270492 -1.68048 24.6124 0.0943603 1.06783 -2.77252 -0.381601 72.1345 3.6953 0.140696 101.519 19.8097 21.741 1.76556e-031 -3.18055e-015 3.18055e-015 2.79197 0.0242599 -0.215893 -1.87045e-008 1.09089e-006 -3.03934 8.02993 -4.95139 0.69764 -74.212 1.65502 1.06454 -102.379 21.1748 -27.3608 1.90833e-014 9.54166e-015 9.54166e-015 6.95552 6.31158 -1.5432 1.07926e-005 -8.80415e-007 3.00503 -8.03049 -4.95135 -0.697609 176.35 -5.12775 -2.27355 180 7.01512e-015 178.781 177.796 3.48307 179.603 -1.01451e-006 -3.05325e-006 0.0363784 -18.92 68.0436 19.5713 8.13799 25.2615 -3.44875 -173.215 -1.3314 0.0793212 4.54188e-006 -4.6773e-006 -1.15807 -1.64762 -6.85588 0.190401 -3.75119e-006 -2.08692e-006 -0.0434095 18.2925 68.4824 -19.9288 -8.13649 25.2327 3.48774 
